# xmcd CD database file
#
# Track frame offsets:
#	150
#	14359
#	34682
#	54566
#	77223
#	91925
#	105438
#	136592
#	176870
#	188097
#	199910
#	212974
#	227927
#	239438
#
# Disc length: 3382 seconds
#
# Revision: 1
# Processed by: cddbd v1.5.2PL0 Copyright (c) Steve Scherf et al.
# Submitted via: CDex 1.70beta2
#
DISCID=bc0d340e
DTITLE=Various Artist - Jazz from the Vaults CD4
DYEAR=2005
DGENRE=Jazz
TTITLE0=Billie Holiday - Strange Fruit
TTITLE1=Chet Baker - Long Ago And Far Away (live)
TTITLE2=Dizzie Gillespie - Night In Tunisia (live)
TTITLE3=Duke Ellington - Mood Indigo
TTITLE4=Lester Young - Lester Leaps in
TTITLE5=Louis Armstrong - Struttin' With Some Barbecue
TTITLE6=Miles Davis - Tune Up (live)
TTITLE7=Sonny Rollines - Sunnymoon For Two
TTITLE8=Teddy Wilson - Easy Living
TTITLE9=Bix Beiderbecke - Singin' The Blues
TTITLE10=Count Basie - Jumpin' At The Woodside
TTITLE11=Fletcher henderson - Sugar Foot Stomp
TTITLE12=Lena Horne - Old Devil Moon
TTITLE13=Dexter Gordon - Cry Me A River
EXTD=YEAR: 2005
EXTT0=
EXTT1=
EXTT2=
EXTT3=
EXTT4=
EXTT5=
EXTT6=
EXTT7=
EXTT8=
EXTT9=
EXTT10=
EXTT11=
EXTT12=
EXTT13=
PLAYORDER=
